{"title":"31 Czas honoru S03E05 XviD","uid":5880611,"size":398593561,"categoryP":"video","categoryS":"tv_shows","magnet":"?xt=urn:btih:f2edf763f5f5ffa6975d20168da313b4a4f5c558&amp;dn=31+Czas+honoru+S03E05+XviD&amp;tr=udp%3A%2F%2Ftracker.openbittorrent.com%3A80&amp;tr=udp%3A%2F%2Fopen.demonii.com%3A1337&amp;tr=udp%3A%2F%2Ftracker.coppersurfer.tk%3A6969&amp;tr=udp%3A%2F%2Fexodus.desync.com%3A6969","seeders":0,"leechers":0,"uploader":"kisielm","files":2,"time":1286822123,"description":"Format                           : AVI\nFormat/Info                      : Audio Video Interleave\nFile size                        : 380 MiB\nDuration                         : 44mn 49s\nOverall bit rate                 : 1 185 Kbps\n\nVideo\nFormat                           : MPEG-4 Visual\nFormat profile                   : Simple@L3\nFormat settings, BVOP            : No\nFormat settings, QPel            : No\nFormat settings, GMC             : No warppoints\nFormat settings, Matrix          : Default (H.263)\nCodec ID                         : XVID\nCodec ID/Hint                    : XviD\nBit rate                         : 1 048 Kbps\nWidth                            : 720 pixels\nHeight                           : 576 pixels\nDisplay aspect ratio             : 16:9\nFrame rate                       : 25.000 fps\nStandard                         : PAL\nColor space                      : YUV\nChroma subsampling               : 4:2:0\nBit depth                        : 8 bits\nScan type                        : Progressive\nBits/(Pixel*Frame)               : 0.101\nStream size                      : 336 MiB (88%)\nWriting library                  : XviD 1.2.1 (UTC 2008-12-04)\n\nAudio\nID                               : 1\nFormat                           : MPEG Audio\nFormat version                   : Version 1\nFormat profile                   : Layer 3\nMode                             : Joint stereo\nMode extension                   : MS Stereo\nCodec ID/Hint                    : MP3\nBit rate mode                    : Constant\nBit rate                         : 128 Kbps\nChannel(s)                       : 2 channels\nSampling rate                    : 48.0 KHz\nVideo delay                      : 8ms\nStream size                      : 41.0 MiB (11%)\nAlignment                        : Split accross interleaves\nInterleave, duration             : 40 ms (1.00 video frame)\nInterleave, preload duration     : 500 ms","torrent":{"xt":"urn:btih:f2edf763f5f5ffa6975d20168da313b4a4f5c558","amp;dn":"31+Czas+honoru+S03E05+XviD","amp;tr":["udp%3A%2F%2Ftracker.openbittorrent.com%3A80","udp%3A%2F%2Fopen.demonii.com%3A1337","udp%3A%2F%2Ftracker.coppersurfer.tk%3A6969","udp%3A%2F%2Fexodus.desync.com%3A6969"],"infoHash":"f2edf763f5f5ffa6975d20168da313b4a4f5c558","infoHashBuffer":{"type":"Buffer","data":[242,237,247,99,245,245,255,166,151,93,32,22,141,163,19,180,164,245,197,88]},"announce":[],"urlList":[]}}